<?plantuml 1.2026.2?><svg xmlns="http://www.w3.org/2000/svg" xmlns:xlink="http://www.w3.org/1999/xlink" contentStyleType="text/css" data-diagram-type="DESCRIPTION" height="1308px" preserveAspectRatio="none" style="width:771px;height:1308px;background:#FFFFFF;" version="1.1" viewBox="0 0 771 1308" width="771px" zoomAndPan="magnify"><defs/><g><!--cluster docker--><g class="cluster" data-qualified-name="docker" data-source-line="85" id="ent0003"><path d="M63.6457,158.412 C79.481,133.1528 108.3319,128.6341 124.5945,157.9347 C141.8827,120.8871 176.5199,122.8689 196.357,155.302 C208.6789,118.7112 237.1348,116.4554 259.603,145.5294 C277.2918,113.241 306.0919,111.1744 324.252,145.0691 C343.4791,116.9917 369.202,108.3125 391.4662,141.7506 C413.7604,113.9096 438.3056,120.4114 454.6224,148.5002 C473.1467,121.0426 500.0505,119.2759 515.7817,151.3688 C535.5456,116.0097 569.0798,121.0729 584.3133,155.7987 C608.6118,124.9424 629.8277,126.7216 653.9831,155.9647 C676.2155,124.1664 695.4933,127.8586 715.1371,158.5 C721.1348,157.5369 724.3954,161.5389 722.1545,167.2119 C754.0307,186.0391 756.4833,209.6899 725.0933,231.413 C749.9695,252.1398 755.6393,274.0643 722.2577,292.0675 C750.5352,312.8392 746.0104,339.6739 717.8478,356.5879 C747.6583,378.4458 755.1309,399.8217 722.7847,426.0945 C755.6913,445.7566 756.6939,468.8422 730.6074,495.1839 C753.0379,511.9365 757.221,536.1258 727.9592,550.3992 C764.3156,575.6603 758.6786,596.9389 725.7212,619.9701 C759.0887,643.9091 756.9204,665.3803 720.9463,684.1613 C753.3119,705.9026 754.2187,726.6274 720.3179,747.7135 C754.0078,763.119 752.4905,794.0398 722.755,811.8552 C755.6006,836.5452 748.2567,858.3434 718.9954,879.586 C743.8395,896.5614 747.2787,922.1356 720.6347,940.4967 C752.2849,959.0325 759.8919,992.7239 723.9691,1014.3122 C744.9302,1039.5633 743.3057,1066.3126 708.1371,1077.5 C712.9716,1075.351 716.3798,1078.6879 715.7598,1083.4855 C699.4888,1121.6113 663.9475,1119.0948 643.3207,1088.0469 C624.8085,1118.1739 604.9881,1113.8482 586.5719,1087.9497 C567.1538,1117.5203 532.3544,1116.8528 514.8429,1085.6977 C500.0487,1115.2868 472.8954,1117.7235 453.1967,1091.0738 C431.735,1122.166 398.6767,1118.8367 384.1012,1083.871 C367.0694,1118.2026 345.2517,1116.5358 320.8731,1091.7255 C304.049,1120.0778 277.2111,1120.8844 262.1258,1090.0011 C239.5791,1122.3558 207.0128,1120.4732 192.1361,1082.3808 C172.6105,1116.5854 142.2421,1115.283 122.895,1082.1971 C96.6582,1115.805 63.4665,1111.9759 49.1371,1070.5 C55.1704,1068.4435 57.7693,1070.8003 57.311,1076.959 C29.033,1057.4025 27.4701,1032.8759 58.639,1014.585 C29.755,1001.9246 24.8909,971.5191 49.1896,950.9601 C22.075,932.2623 21.3736,898.3938 52.124,882.1643 C14.2554,861.5144 24.6574,832.0308 53.3661,812.5691 C21.0409,794.129 27.0925,774.0772 51.0446,753.4281 C21.1321,735.6394 13.2855,710.2085 47.3458,688.7607 C17.1484,666.3122 21.5465,642.194 49.4832,621.5956 C22.0002,606.9353 16.7671,577.8237 44.5652,558.8318 C6,539.1143 9.3527,505.9015 43.4292,485.0654 C13.7622,458.7896 19.3957,439.6316 51.7598,421.4834 C21.0452,406.7818 18.2312,375.4973 46.9872,356.4326 C16.587,329.8571 24.4278,307.3301 56.7113,289.9186 C31.943,274.8343 27.3788,247.8871 57.47,233.5411 C19.0821,206.7324 18.9261,179.5369 56.1371,151.5 C62.0556,149.8126 64.1242,153.1502 63.6457,158.412" fill="none" style="stroke:#181818;stroke-width:1;"/><text fill="#000000" font-family="sans-serif" font-size="14" font-weight="bold" lengthAdjust="spacing" textLength="45.9102" x="359.182" y="169.6318">docker</text></g><!--cluster gw--><g class="cluster" data-qualified-name="docker.gw" data-source-line="87" id="ent0004"><polygon fill="none" points="340.1371,196.5,350.1371,186.5,627.1371,186.5,627.1371,278.5,617.1371,288.5,340.1371,288.5,340.1371,196.5" style="stroke:#181818;stroke-width:1;"/><line style="stroke:#181818;stroke-width:1;" x1="617.1371" x2="627.1371" y1="196.5" y2="186.5"/><line style="stroke:#181818;stroke-width:1;" x1="340.1371" x2="617.1371" y1="196.5" y2="196.5"/><line style="stroke:#181818;stroke-width:1;" x1="617.1371" x2="617.1371" y1="196.5" y2="288.5"/><text fill="#000000" font-family="sans-serif" font-size="14" font-weight="bold" lengthAdjust="spacing" textLength="211.6406" x="373.8168" y="212.6318">mwaeckerlin/openclaw:gateway</text></g><!--cluster mwaeckerlin/openclaw-mcp-gateway--><g class="cluster" data-qualified-name="docker.mwaeckerlin.openclaw-mcp-gateway" data-source-line="93" id="ent0008"><polygon fill="none" points="368.1371,545.5,378.1371,535.5,689.1371,535.5,689.1371,627.5,679.1371,637.5,368.1371,637.5,368.1371,545.5" style="stroke:#181818;stroke-width:1;"/><line style="stroke:#181818;stroke-width:1;" x1="679.1371" x2="689.1371" y1="545.5" y2="535.5"/><line style="stroke:#181818;stroke-width:1;" x1="368.1371" x2="679.1371" y1="545.5" y2="545.5"/><line style="stroke:#181818;stroke-width:1;" x1="679.1371" x2="679.1371" y1="545.5" y2="637.5"/><text fill="#000000" font-family="sans-serif" font-size="14" font-weight="bold" lengthAdjust="spacing" textLength="245.0889" x="402.0927" y="561.6318">mwaeckerlin/openclaw-mcp-gateway</text></g><!--cluster sb--><g class="cluster" data-qualified-name="docker.sb" data-source-line="97" id="ent0010"><polygon fill="none" points="385.1371,834.5,395.1371,824.5,699.1371,824.5,699.1371,916.5,689.1371,926.5,385.1371,926.5,385.1371,834.5" style="stroke:#181818;stroke-width:1;"/><line style="stroke:#181818;stroke-width:1;" x1="689.1371" x2="699.1371" y1="834.5" y2="824.5"/><line style="stroke:#181818;stroke-width:1;" x1="385.1371" x2="689.1371" y1="834.5" y2="834.5"/><line style="stroke:#181818;stroke-width:1;" x1="689.1371" x2="689.1371" y1="834.5" y2="926.5"/><text fill="#000000" font-family="sans-serif" font-size="14" font-weight="bold" lengthAdjust="spacing" textLength="213.958" x="431.1581" y="850.6318">mwaeckerlin/openclaw:sandbox</text></g><!--cluster dind--><g class="cluster" data-qualified-name="docker.dind" data-source-line="103" id="ent0014"><polygon fill="none" points="65.1371,834.5,75.1371,824.5,342.1371,824.5,342.1371,916.5,332.1371,926.5,65.1371,926.5,65.1371,834.5" style="stroke:#181818;stroke-width:1;"/><line style="stroke:#181818;stroke-width:1;" x1="332.1371" x2="342.1371" y1="834.5" y2="824.5"/><line style="stroke:#181818;stroke-width:1;" x1="65.1371" x2="332.1371" y1="834.5" y2="834.5"/><line style="stroke:#181818;stroke-width:1;" x1="332.1371" x2="332.1371" y1="834.5" y2="926.5"/><text fill="#000000" font-family="sans-serif" font-size="14" font-weight="bold" lengthAdjust="spacing" textLength="98" x="150.6371" y="850.6318">openclaw-dind</text></g><!--cluster mwaeckerlin/mcp-github--><g class="cluster" data-qualified-name="docker.mwaeckerlin.mcp-github" data-source-line="109" id="ent0019"><polygon fill="none" points="329.1371,969.5,339.1371,959.5,569.1371,959.5,569.1371,1051.5,559.1371,1061.5,329.1371,1061.5,329.1371,969.5" style="stroke:#181818;stroke-width:1;"/><line style="stroke:#181818;stroke-width:1;" x1="559.1371" x2="569.1371" y1="969.5" y2="959.5"/><line style="stroke:#181818;stroke-width:1;" x1="329.1371" x2="559.1371" y1="969.5" y2="969.5"/><line style="stroke:#181818;stroke-width:1;" x1="559.1371" x2="559.1371" y1="969.5" y2="1061.5"/><text fill="#000000" font-family="sans-serif" font-size="14" font-weight="bold" lengthAdjust="spacing" textLength="164.1445" x="363.0648" y="985.6318">mwaeckerlin/mcp-github</text></g><!--entity aw--><g class="entity" data-qualified-name="docker.aw" data-source-line="113" id="ent0021"><rect fill="#F1F1F1" height="46.0986" rx="2.5" ry="2.5" style="stroke:#181818;stroke-width:0.5;" width="154.3584" x="471.1371" y="350.5"/><rect fill="#F1F1F1" height="10" style="stroke:#181818;stroke-width:0.5;" width="15" x="605.4955" y="355.5"/><rect fill="#F1F1F1" height="2" style="stroke:#181818;stroke-width:0.5;" width="4" x="603.4955" y="357.5"/><rect fill="#F1F1F1" height="2" style="stroke:#181818;stroke-width:0.5;" width="4" x="603.4955" y="361.5"/><text fill="#000000" font-family="sans-serif" font-size="14" lengthAdjust="spacing" textLength="114.3584" x="486.1371" y="383.6318">allow-write-access</text></g><!--entity ctrl--><g class="entity" data-qualified-name="docker.gw.ctrl" data-source-line="88" id="ent0005"><rect fill="#F1F1F1" height="46.0986" rx="2.5" ry="2.5" style="stroke:#181818;stroke-width:0.5;" width="95.248" x="357.6371" y="226.5"/><rect fill="#F1F1F1" height="10" style="stroke:#181818;stroke-width:0.5;" width="15" x="432.8851" y="231.5"/><rect fill="#F1F1F1" height="2" style="stroke:#181818;stroke-width:0.5;" width="4" x="430.8851" y="233.5"/><rect fill="#F1F1F1" height="2" style="stroke:#181818;stroke-width:0.5;" width="4" x="430.8851" y="237.5"/><text fill="#000000" font-family="sans-serif" font-size="14" lengthAdjust="spacing" textLength="55.248" x="372.6371" y="259.6318">Gateway</text></g><!--entity cfg--><g class="entity" data-qualified-name="docker.gw.cfg" data-source-line="89" id="ent0006"><rect fill="#F1F1F1" height="36.0986" rx="35" ry="35" style="stroke:#181818;stroke-width:0.5;" width="121.1719" x="487.6371" y="231.5"/><text fill="#000000" font-family="sans-serif" font-size="14" lengthAdjust="spacing" textLength="101.1719" x="497.6371" y="254.6318">openclaw-config</text></g><!--entity mcp--><g class="entity" data-qualified-name="docker.mwaeckerlin.openclaw-mcp-gateway.mcp" data-source-line="94" id="ent0009"><rect fill="#F1F1F1" height="46.0986" rx="2.5" ry="2.5" style="stroke:#181818;stroke-width:0.5;" width="185.4893" x="385.6371" y="575.5"/><rect fill="#F1F1F1" height="10" style="stroke:#181818;stroke-width:0.5;" width="15" x="551.1263" y="580.5"/><rect fill="#F1F1F1" height="2" style="stroke:#181818;stroke-width:0.5;" width="4" x="549.1263" y="582.5"/><rect fill="#F1F1F1" height="2" style="stroke:#181818;stroke-width:0.5;" width="4" x="549.1263" y="586.5"/><text fill="#000000" font-family="sans-serif" font-size="14" lengthAdjust="spacing" textLength="145.4893" x="400.6371" y="608.6318">MCP OpenClaw Server</text></g><!--entity sshd--><g class="entity" data-qualified-name="docker.sb.sshd" data-source-line="98" id="ent0011"><rect fill="#F1F1F1" height="46.0986" rx="2.5" ry="2.5" style="stroke:#181818;stroke-width:0.5;" width="95.2686" x="401.6371" y="864.5"/><rect fill="#F1F1F1" height="10" style="stroke:#181818;stroke-width:0.5;" width="15" x="476.9056" y="869.5"/><rect fill="#F1F1F1" height="2" style="stroke:#181818;stroke-width:0.5;" width="4" x="474.9056" y="871.5"/><rect fill="#F1F1F1" height="2" style="stroke:#181818;stroke-width:0.5;" width="4" x="474.9056" y="875.5"/><text fill="#000000" font-family="sans-serif" font-size="14" lengthAdjust="spacing" textLength="55.2686" x="416.6371" y="897.6318">Sandbox</text></g><!--entity ws--><g class="entity" data-qualified-name="docker.sb.ws" data-source-line="99" id="ent0012"><rect fill="#F1F1F1" height="36.0986" rx="35" ry="35" style="stroke:#181818;stroke-width:0.5;" width="150.7305" x="531.6371" y="869.5"/><text fill="#000000" font-family="sans-serif" font-size="14" lengthAdjust="spacing" textLength="130.7305" x="541.6371" y="892.6318">openclaw-workspace</text></g><!--entity dd--><g class="entity" data-qualified-name="docker.dind.dd" data-source-line="104" id="ent0015"><rect fill="#F1F1F1" height="46.0986" rx="2.5" ry="2.5" style="stroke:#181818;stroke-width:0.5;" width="84.3447" x="242.1371" y="864.5"/><rect fill="#F1F1F1" height="10" style="stroke:#181818;stroke-width:0.5;" width="15" x="306.4818" y="869.5"/><rect fill="#F1F1F1" height="2" style="stroke:#181818;stroke-width:0.5;" width="4" x="304.4818" y="871.5"/><rect fill="#F1F1F1" height="2" style="stroke:#181818;stroke-width:0.5;" width="4" x="304.4818" y="875.5"/><text fill="#000000" font-family="sans-serif" font-size="14" lengthAdjust="spacing" textLength="44.3447" x="257.1371" y="897.6318">Docker</text></g><!--entity dv--><g class="entity" data-qualified-name="docker.dind.dv" data-source-line="105" id="ent0016"><rect fill="#F1F1F1" height="36.0986" rx="35" ry="35" style="stroke:#181818;stroke-width:0.5;" width="125.834" x="81.1371" y="869.5"/><text fill="#000000" font-family="sans-serif" font-size="14" lengthAdjust="spacing" textLength="105.834" x="91.1371" y="892.6318">openclaw-docker</text></g><!--entity gh--><g class="entity" data-qualified-name="docker.mwaeckerlin.mcp-github.gh" data-source-line="110" id="ent0020"><rect fill="#F1F1F1" height="46.0986" rx="2.5" ry="2.5" style="stroke:#181818;stroke-width:0.5;" width="141.1582" x="378.6371" y="999.5"/><rect fill="#F1F1F1" height="10" style="stroke:#181818;stroke-width:0.5;" width="15" x="499.7953" y="1004.5"/><rect fill="#F1F1F1" height="2" style="stroke:#181818;stroke-width:0.5;" width="4" x="497.7953" y="1006.5"/><rect fill="#F1F1F1" height="2" style="stroke:#181818;stroke-width:0.5;" width="4" x="497.7953" y="1010.5"/><text fill="#000000" font-family="sans-serif" font-size="14" lengthAdjust="spacing" textLength="101.1582" x="393.6371" y="1032.6318">Github-Gateway</text></g><!--entity user--><g class="entity" data-qualified-name="user" data-source-line="83" id="ent0002"><ellipse cx="404.9164" cy="14" fill="#F1F1F1" rx="8" ry="8" style="stroke:#181818;stroke-width:0.5;"/><path d="M404.9164,22 L404.9164,49 M391.9164,30 L417.9164,30 M404.9164,49 L391.9164,64 M404.9164,49 L417.9164,64" fill="none" style="stroke:#181818;stroke-width:0.5;"/><text fill="#000000" font-family="sans-serif" font-size="14" lengthAdjust="spacing" textLength="29.5586" x="390.1371" y="78.6318">User</text></g><!--entity GitHib--><g class="entity" data-qualified-name="GitHib" data-source-line="123" id="ent0033"><rect fill="#F1F1F1" height="46.0986" rx="2.5" ry="2.5" style="stroke:#181818;stroke-width:0.5;" width="78.8965" x="409.6371" y="1256.5"/><rect fill="#F1F1F1" height="10" style="stroke:#181818;stroke-width:0.5;" width="15" x="468.5336" y="1261.5"/><rect fill="#F1F1F1" height="2" style="stroke:#181818;stroke-width:0.5;" width="4" x="466.5336" y="1263.5"/><rect fill="#F1F1F1" height="2" style="stroke:#181818;stroke-width:0.5;" width="4" x="466.5336" y="1267.5"/><text fill="#000000" font-family="sans-serif" font-size="14" lengthAdjust="spacing" textLength="38.8965" x="424.6371" y="1289.6318">GitHib</text></g><!--link ctrl to cfg--><g class="link" data-entity-1="ent0005" data-entity-2="ent0006" data-link-type="association" data-source-line="90" id="lnk7"><path d="M452.8971,249.5 C464.4271,249.5 475.9671,249.5 487.4971,249.5" fill="none" id="ctrl-cfg" style="stroke:#181818;stroke-width:1;"/></g><!--link sshd to ws--><g class="link" data-entity-1="ent0011" data-entity-2="ent0012" data-link-type="association" data-source-line="100" id="lnk13"><path d="M496.6571,887.5 C508.3171,887.5 519.9671,887.5 531.6171,887.5" fill="none" id="sshd-ws" style="stroke:#181818;stroke-width:1;"/></g><!--link dv to dd--><g class="link" data-entity-1="ent0016" data-entity-2="ent0015" data-link-type="association" data-source-line="106" id="lnk18"><path d="M207.2971,887.5 C218.9071,887.5 230.5071,887.5 242.1171,887.5" fill="none" id="dv-dd" style="stroke:#181818;stroke-width:1;"/></g><!--link user to ctrl--><g class="link" data-entity-1="ent0002" data-entity-2="ent0005" data-link-type="dependency" data-source-line="116" id="lnk22"><path d="M405.1371,81.92 C405.1371,124.25 405.1371,185.78 405.1371,220.43" fill="none" id="user-to-ctrl" style="stroke:#181818;stroke-width:1;"/><polygon fill="#181818" points="405.1371,226.43,409.1371,217.43,405.1371,221.43,401.1371,217.43,405.1371,226.43" style="stroke:#181818;stroke-width:1;"/><text fill="#000000" font-family="sans-serif" font-size="13" lengthAdjust="spacing" textLength="33.9409" x="406.1371" y="124.6938">HTTP</text></g><!--link ctrl to sshd--><g class="link" data-entity-1="ent0005" data-entity-2="ent0011" data-link-type="dependency" data-source-line="117" id="lnk23"><path d="M377.9571,272.65 C353.7571,295.04 322.1371,332.02 322.1371,372.5 C322.1371,372.5 322.1371,372.5 322.1371,777.5 C322.1371,801.62 370.4943,837.0387 408.0443,861.2487" fill="none" id="ctrl-to-sshd" style="stroke:#181818;stroke-width:1;"/><polygon fill="#181818" points="413.0871,864.5,407.6905,856.2613,408.8848,861.7906,403.3555,862.9849,413.0871,864.5" style="stroke:#181818;stroke-width:1;"/><text fill="#000000" font-family="sans-serif" font-size="13" lengthAdjust="spacing" textLength="26.73" x="323.1371" y="603.6938">SSH</text></g><!--reverse link mcp to sshd--><g class="link" data-entity-1="ent0009" data-entity-2="ent0011" data-link-type="dependency" data-source-line="118" id="lnk25"><path d="M475.3038,627.5096 C469.9038,680.9396 456.7771,810.88 451.3771,864.38" fill="none" id="mcp-backto-sshd" style="stroke:#181818;stroke-width:1;"/><polygon fill="#181818" points="475.9071,621.54,471.0224,630.0922,475.4043,626.5147,478.9818,630.8966,475.9071,621.54" style="stroke:#181818;stroke-width:1;"/><text fill="#000000" font-family="sans-serif" font-size="13" lengthAdjust="spacing" textLength="54.9263" x="471.463" y="728.6938">openclaw</text><text fill="#000000" font-family="sans-serif" font-size="13" lengthAdjust="spacing" textLength="63.5781" x="467.1371" y="743.6426">commands</text></g><!--reverse link ctrl to mcp--><g class="link" data-entity-1="ent0005" data-entity-2="ent0009" data-link-type="dependency" data-source-line="119" id="lnk27"><path d="M407.9774,278.8668 C411.0174,307.6468 416.4771,353.1 425.1371,396.5 C438.2771,462.33 460.2971,538.61 471.3671,575.4" fill="none" id="ctrl-backto-mcp" style="stroke:#181818;stroke-width:1;"/><polygon fill="#181818" points="407.3471,272.9,404.3146,282.2704,407.8723,277.8723,412.2704,281.43,407.3471,272.9" style="stroke:#181818;stroke-width:1;"/><text fill="#000000" font-family="sans-serif" font-size="13" lengthAdjust="spacing" textLength="43.3481" x="449.2521" y="439.6938">forward</text><text fill="#000000" font-family="sans-serif" font-size="13" lengthAdjust="spacing" textLength="63.5781" x="439.1371" y="454.6426">commands</text></g><!--reverse link dd to sshd--><g class="link" data-entity-1="ent0015" data-entity-2="ent0011" data-link-type="dependency" data-source-line="120" id="lnk29"><path d="M332.1971,887.5 C355.2071,887.5 377.7971,887.5 401.6071,887.5" fill="none" id="dd-backto-sshd" style="stroke:#181818;stroke-width:1;"/><polygon fill="#181818" points="326.1971,887.5,335.1971,891.5,331.1971,887.5,335.1971,883.5,326.1971,887.5" style="stroke:#181818;stroke-width:1;"/><text fill="#000000" font-family="sans-serif" font-size="13" lengthAdjust="spacing" textLength="39.019" x="344.3871" y="881.6938">docker</text></g><!--reverse link cfg to aw--><g class="link" data-entity-1="ent0006" data-entity-2="ent0021" data-link-type="dependency" data-source-line="121" id="lnk31"><path d="M548.1371,273.72 C548.1371,295.4 548.1371,326.66 548.1371,350.41" fill="none" id="cfg-backto-aw" style="stroke:#181818;stroke-width:1;stroke-dasharray:7,7;"/><polygon fill="#181818" points="548.1371,267.72,544.1371,276.72,548.1371,272.72,552.1371,276.72,548.1371,267.72" style="stroke:#181818;stroke-width:1;"/><text fill="#000000" font-family="sans-serif" font-size="13" lengthAdjust="spacing" textLength="37.5781" x="549.1371" y="317.6938">chown</text></g><!--link sshd to gh--><g class="link" data-entity-1="ent0011" data-entity-2="ent0020" data-link-type="dependency" data-source-line="122" id="lnk32"><path d="M449.1371,910.76 C449.1371,935.31 449.1371,968.59 449.1371,993.17" fill="none" id="sshd-to-gh" style="stroke:#181818;stroke-width:1;"/><polygon fill="#181818" points="449.1371,999.17,453.1371,990.17,449.1371,994.17,445.1371,990.17,449.1371,999.17" style="stroke:#181818;stroke-width:1;"/></g><!--link gh to GitHib--><g class="link" data-entity-1="ent0020" data-entity-2="ent0033" data-link-type="dependency" data-source-line="123" id="lnk34"><path d="M449.1371,1045.68 C449.1371,1093.91 449.1371,1201.84 449.1371,1250.19" fill="none" id="gh-to-GitHib" style="stroke:#181818;stroke-width:1;"/><polygon fill="#181818" points="449.1371,1256.19,453.1371,1247.19,449.1371,1251.19,445.1371,1247.19,449.1371,1256.19" style="stroke:#181818;stroke-width:1;"/></g><?plantuml-src XL8zRyCW4Dtv5IVlf7i6BwcKB5KZEPtQ31WmjcA31NPeLVM_zpZiA4jQBuR7U_VkIyZ9UNWBseC8CEEVCTcxMO5oyeBeDsC0rYaDnH25JbZVsIStQYjx4RT6J3gAhoB9JKGwuFU-p-WveNBoFQ41hOJ1GAkOIsURpf1MDeP8YGrykVxyRSu7EV9R0elro-u8hqZO8G4gxQ_QKnh8_J_YDWYhQlT9AOLwZLbbbEA4qAe7vKJdBs4KKfCyXan3Fd3VcNRY6RlBuIPLdLMaIeVLzfb6GAxgaMSUKvPUYQFGhjSDkX7me69gNJUrSttht9wk_7vsfbqZI3UCpcexGI7wtc6nlfiq5rBg4CXUH8RCj4B0UPa7kONYS3eT2vR7YZ2r0-6gEXGizuRFOth1ZF1XBUp3ekE0VGyiFQoa9MhZV1HUtP5oAAgxJ2tOBWlCS0isyxWfqqeXAbiNxMfSfW9DYwTqJWquTFNv5m00?></g></svg>