<?plantuml 1.2026.2?><svg xmlns="http://www.w3.org/2000/svg" xmlns:xlink="http://www.w3.org/1999/xlink" contentStyleType="text/css" data-diagram-type="DESCRIPTION" height="1341px" preserveAspectRatio="none" style="width:742px;height:1341px;background:#FFFFFF;" version="1.1" viewBox="0 0 742 1341" width="742px" zoomAndPan="magnify"><defs/><g><!--cluster docker--><g class="cluster" data-qualified-name="docker" data-source-line="75" id="ent0003"><path d="M58.8066,163.6172 C76.67,128.5182 103.7671,131.6037 124.2557,160.9513 C140.4792,128.6111 160.4985,131.9997 181.2328,156.4235 C204.9808,123.9931 229.3812,128.7917 250.9996,158.8029 C266.6092,126.2348 296.0458,126.37 311.5417,158.9086 C329.2467,126.618 353.5061,131.4093 372.8725,157.1528 C390.9722,129.2506 410.4369,122.9313 432.6506,152.9035 C452.5389,118.0791 476.1171,116.3766 498.3735,150.6511 C517.4996,128.9034 538.9752,124.4759 554.6883,154.3727 C569.47,123.6615 597.397,124.5338 613.5257,153.0342 C633.4591,125.864 664.8992,123.6371 679.7095,158.5 C683.162,153.7921 686.0621,155.0673 688.958,159.0896 C721.0329,182.6866 721.9011,217.3718 683.5053,235.9708 C714.5181,248.0575 724.8494,277.6946 693.9068,299.8669 C725.8719,325.9515 720.1906,352.7222 684.0249,369.0794 C716.7702,384.1817 712.9021,414.1836 688.3515,433.1548 C720.5622,456.8244 732.3457,478.4643 693.7889,507.322 C721.1283,528.1119 725.7892,546.4758 695.2819,568.6734 C722.3946,590.4194 728.0721,612.0968 693.7902,632.4058 C733.0522,654.0977 733.0888,681.8423 699.2151,708.7323 C728.1457,732.5308 720.2288,752.1143 691.6625,768.6675 C720.7602,788.5495 720.0081,812.2062 694.0948,834.1321 C735.7031,855.2141 733.8907,893.7737 692.4119,913.0848 C720.0849,936.4495 717.7732,958.7141 682.701,971.6802 C723.0453,989.8821 715.7724,1016.0949 689.9767,1041.2171 C716.2478,1073.1737 714.1473,1095.4183 672.7095,1110.5 C673.9393,1110.8981 674.4345,1111.9388 673.4345,1112.9868 C659.6196,1139.18 642.3175,1144.0092 622.7969,1118.5842 C600.2253,1157.2955 578.0706,1149.7634 552.0358,1122.2867 C538.0845,1147.9647 513.6826,1147.8002 496.6761,1125.8369 C472.7956,1162.6811 443.3399,1152.3739 426.0663,1119.1765 C411.081,1147.0007 385.0487,1148.1764 365.5808,1124.4344 C342.299,1156.3793 322.7087,1148.6845 303.6002,1120.1569 C289.0233,1145.9301 266.2661,1149.5948 247.8193,1124.3916 C224.744,1154.6602 204.255,1149.8129 184.9218,1120.4448 C169.1159,1152.7657 137.676,1150.1296 119.8306,1122.6654 C87.6894,1155.8863 61.9027,1140.5936 48.7095,1103.5 C54.8991,1101.5057 58.0368,1104.28 57.908,1110.5406 C21.3248,1093.9437 16.695,1066.5066 50.1348,1041.9717 C17.695,1020.6311 18.5523,993.629 51.4368,973.5311 C21.6232,948.2068 21.782,926.9919 54.694,904.633 C20.553,886.7578 19.1858,867.2516 48.9495,843.3828 C11.2781,820.8512 13.2132,795.2513 46.6159,770.4456 C11.3961,750.508 12.224,726.6897 44.3526,704.4427 C18.6804,680.9243 10.7152,655.5934 49.1931,636.6557 C18.5156,612.4173 14.4177,588.8678 49.9874,565.3676 C15.046,547.8618 6.8393,521.677 41.9973,496.0868 C13.082,479.4911 11.4484,450.4722 42.7038,434.5675 C7.4498,409.6069 6,385.2705 45.4329,363.1645 C20.1659,344.2333 21.352,314.038 48.8184,297.8397 C21.4632,271.1005 22.3127,245.3876 59.3143,228.372 C22.0195,206.978 18.4906,176.3882 55.7095,151.5 C62.1532,153.6314 63.7438,158.577 58.8066,163.6172" fill="none" style="stroke:#181818;stroke-width:1;"/><text fill="#000000" font-family="sans-serif" font-size="14" font-weight="bold" lengthAdjust="spacing" textLength="45.9102" x="341.2545" y="169.6318">docker</text></g><!--cluster gw--><g class="cluster" data-qualified-name="docker.gw" data-source-line="77" id="ent0004"><polygon fill="none" points="226.7095,196.5,236.7095,186.5,540.7095,186.5,540.7095,310.5,530.7095,320.5,226.7095,320.5,226.7095,196.5" style="stroke:#181818;stroke-width:1;"/><line style="stroke:#181818;stroke-width:1;" x1="530.7095" x2="540.7095" y1="196.5" y2="186.5"/><line style="stroke:#181818;stroke-width:1;" x1="226.7095" x2="530.7095" y1="196.5" y2="196.5"/><line style="stroke:#181818;stroke-width:1;" x1="530.7095" x2="530.7095" y1="196.5" y2="320.5"/><text fill="#000000" font-family="sans-serif" font-size="14" font-weight="bold" lengthAdjust="spacing" textLength="211.6406" x="273.8892" y="212.6318">mwaeckerlin/openclaw:gateway</text></g><!--cluster mwaeckerlin/openclaw-mcp-gateway--><g class="cluster" data-qualified-name="docker.mwaeckerlin.openclaw-mcp-gateway" data-source-line="83" id="ent0008"><polygon fill="none" points="330.7095,562.5,340.7095,552.5,651.7095,552.5,651.7095,644.5,641.7095,654.5,330.7095,654.5,330.7095,562.5" style="stroke:#181818;stroke-width:1;"/><line style="stroke:#181818;stroke-width:1;" x1="641.7095" x2="651.7095" y1="562.5" y2="552.5"/><line style="stroke:#181818;stroke-width:1;" x1="330.7095" x2="641.7095" y1="562.5" y2="562.5"/><line style="stroke:#181818;stroke-width:1;" x1="641.7095" x2="641.7095" y1="562.5" y2="654.5"/><text fill="#000000" font-family="sans-serif" font-size="14" font-weight="bold" lengthAdjust="spacing" textLength="245.0889" x="364.6651" y="578.6318">mwaeckerlin/openclaw-mcp-gateway</text></g><!--cluster sb--><g class="cluster" data-qualified-name="docker.sb" data-source-line="87" id="ent0010"><polygon fill="none" points="109.7095,836.5,119.7095,826.5,470.7095,826.5,470.7095,934.5,460.7095,944.5,109.7095,944.5,109.7095,836.5" style="stroke:#181818;stroke-width:1;"/><line style="stroke:#181818;stroke-width:1;" x1="460.7095" x2="470.7095" y1="836.5" y2="826.5"/><line style="stroke:#181818;stroke-width:1;" x1="109.7095" x2="460.7095" y1="836.5" y2="836.5"/><line style="stroke:#181818;stroke-width:1;" x1="460.7095" x2="460.7095" y1="836.5" y2="944.5"/><text fill="#000000" font-family="sans-serif" font-size="14" font-weight="bold" lengthAdjust="spacing" textLength="213.958" x="179.2305" y="852.6318">mwaeckerlin/openclaw:sandbox</text></g><!--cluster dind--><g class="cluster" data-qualified-name="docker.dind" data-source-line="93" id="ent0015"><polygon fill="none" points="64.7095,1002.5,74.7095,992.5,399.7095,992.5,399.7095,1084.5,389.7095,1094.5,64.7095,1094.5,64.7095,1002.5" style="stroke:#181818;stroke-width:1;"/><line style="stroke:#181818;stroke-width:1;" x1="389.7095" x2="399.7095" y1="1002.5" y2="992.5"/><line style="stroke:#181818;stroke-width:1;" x1="64.7095" x2="389.7095" y1="1002.5" y2="1002.5"/><line style="stroke:#181818;stroke-width:1;" x1="389.7095" x2="389.7095" y1="1002.5" y2="1094.5"/><text fill="#000000" font-family="sans-serif" font-size="14" font-weight="bold" lengthAdjust="spacing" textLength="98" x="179.2095" y="1018.6318">openclaw-dind</text></g><!--cluster mwaeckerlin/mcp-github--><g class="cluster" data-qualified-name="docker.mwaeckerlin.mcp-github" data-source-line="99" id="ent0020"><polygon fill="none" points="423.7095,1002.5,433.7095,992.5,663.7095,992.5,663.7095,1084.5,653.7095,1094.5,423.7095,1094.5,423.7095,1002.5" style="stroke:#181818;stroke-width:1;"/><line style="stroke:#181818;stroke-width:1;" x1="653.7095" x2="663.7095" y1="1002.5" y2="992.5"/><line style="stroke:#181818;stroke-width:1;" x1="423.7095" x2="653.7095" y1="1002.5" y2="1002.5"/><line style="stroke:#181818;stroke-width:1;" x1="653.7095" x2="653.7095" y1="1002.5" y2="1094.5"/><text fill="#000000" font-family="sans-serif" font-size="14" font-weight="bold" lengthAdjust="spacing" textLength="164.1445" x="457.6373" y="1018.6318">mwaeckerlin/mcp-github</text></g><!--entity aw--><g class="entity" data-qualified-name="docker.aw" data-source-line="103" id="ent0022"><rect fill="#F1F1F1" height="46.0986" rx="2.5" ry="2.5" style="stroke:#181818;stroke-width:0.5;" width="154.3584" x="386.7095" y="382.5"/><rect fill="#F1F1F1" height="10" style="stroke:#181818;stroke-width:0.5;" width="15" x="521.0679" y="387.5"/><rect fill="#F1F1F1" height="2" style="stroke:#181818;stroke-width:0.5;" width="4" x="519.0679" y="389.5"/><rect fill="#F1F1F1" height="2" style="stroke:#181818;stroke-width:0.5;" width="4" x="519.0679" y="393.5"/><text fill="#000000" font-family="sans-serif" font-size="14" lengthAdjust="spacing" textLength="114.3584" x="401.7095" y="415.6318">allow-write-access</text></g><!--entity ctrl--><g class="entity" data-qualified-name="docker.gw.ctrl" data-source-line="78" id="ent0005"><rect fill="#F1F1F1" height="78.2959" rx="2.5" ry="2.5" style="stroke:#181818;stroke-width:0.5;" width="124.8271" x="243.2095" y="226.5"/><rect fill="#F1F1F1" height="10" style="stroke:#181818;stroke-width:0.5;" width="15" x="348.0367" y="231.5"/><rect fill="#F1F1F1" height="2" style="stroke:#181818;stroke-width:0.5;" width="4" x="346.0367" y="233.5"/><rect fill="#F1F1F1" height="2" style="stroke:#181818;stroke-width:0.5;" width="4" x="346.0367" y="237.5"/><text fill="#000000" font-family="sans-serif" font-size="14" lengthAdjust="spacing" textLength="84.8271" x="258.2095" y="259.6318">Control Plane</text><text fill="#000000" font-family="sans-serif" font-size="14" lengthAdjust="spacing" textLength="66.9102" x="258.2095" y="275.7305">LLM Proxy</text><text fill="#000000" font-family="sans-serif" font-size="14" lengthAdjust="spacing" textLength="46.6758" x="258.2095" y="291.8291">Web UI</text></g><!--entity cfg--><g class="entity" data-qualified-name="docker.gw.cfg" data-source-line="79" id="ent0006"><rect fill="#F1F1F1" height="36.0986" rx="35" ry="35" style="stroke:#181818;stroke-width:0.5;" width="121.1719" x="403.2095" y="247.5"/><text fill="#000000" font-family="sans-serif" font-size="14" lengthAdjust="spacing" textLength="101.1719" x="413.2095" y="270.6318">openclaw-config</text></g><!--entity mcp--><g class="entity" data-qualified-name="docker.mwaeckerlin.openclaw-mcp-gateway.mcp" data-source-line="84" id="ent0009"><rect fill="#F1F1F1" height="46.0986" rx="2.5" ry="2.5" style="stroke:#181818;stroke-width:0.5;" width="185.4893" x="348.2095" y="592.5"/><rect fill="#F1F1F1" height="10" style="stroke:#181818;stroke-width:0.5;" width="15" x="513.6988" y="597.5"/><rect fill="#F1F1F1" height="2" style="stroke:#181818;stroke-width:0.5;" width="4" x="511.6988" y="599.5"/><rect fill="#F1F1F1" height="2" style="stroke:#181818;stroke-width:0.5;" width="4" x="511.6988" y="603.5"/><text fill="#000000" font-family="sans-serif" font-size="14" lengthAdjust="spacing" textLength="145.4893" x="363.2095" y="625.6318">MCP OpenClaw Server</text></g><!--entity sshd--><g class="entity" data-qualified-name="docker.sb.sshd" data-source-line="88" id="ent0011"><rect fill="#F1F1F1" height="62.1973" rx="2.5" ry="2.5" style="stroke:#181818;stroke-width:0.5;" width="141.9512" x="312.7095" y="866.5"/><rect fill="#F1F1F1" height="10" style="stroke:#181818;stroke-width:0.5;" width="15" x="434.6607" y="871.5"/><rect fill="#F1F1F1" height="2" style="stroke:#181818;stroke-width:0.5;" width="4" x="432.6607" y="873.5"/><rect fill="#F1F1F1" height="2" style="stroke:#181818;stroke-width:0.5;" width="4" x="432.6607" y="877.5"/><text fill="#000000" font-family="sans-serif" font-size="14" lengthAdjust="spacing" textLength="52.9238" x="327.7095" y="899.6318">sshd :22</text><text fill="#000000" font-family="sans-serif" font-size="14" lengthAdjust="spacing" textLength="101.9512" x="327.7095" y="915.7305">login: somebody</text></g><!--entity ws--><g class="entity" data-qualified-name="docker.sb.ws" data-source-line="89" id="ent0012"><rect fill="#F1F1F1" height="36.0986" rx="35" ry="35" style="stroke:#181818;stroke-width:0.5;" width="150.7305" x="126.2095" y="879.5"/><text fill="#000000" font-family="sans-serif" font-size="14" lengthAdjust="spacing" textLength="130.7305" x="136.2095" y="902.6318">openclaw-workspace</text></g><!--entity dd--><g class="entity" data-qualified-name="docker.dind.dd" data-source-line="94" id="ent0016"><rect fill="#F1F1F1" height="46.0986" rx="2.5" ry="2.5" style="stroke:#181818;stroke-width:0.5;" width="141.1514" x="242.2095" y="1032.5"/><rect fill="#F1F1F1" height="10" style="stroke:#181818;stroke-width:0.5;" width="15" x="363.3609" y="1037.5"/><rect fill="#F1F1F1" height="2" style="stroke:#181818;stroke-width:0.5;" width="4" x="361.3609" y="1039.5"/><rect fill="#F1F1F1" height="2" style="stroke:#181818;stroke-width:0.5;" width="4" x="361.3609" y="1043.5"/><text fill="#000000" font-family="sans-serif" font-size="14" lengthAdjust="spacing" textLength="101.1514" x="257.2095" y="1065.6318">Docker Daemon</text></g><!--entity dv--><g class="entity" data-qualified-name="docker.dind.dv" data-source-line="95" id="ent0017"><rect fill="#F1F1F1" height="36.0986" rx="35" ry="35" style="stroke:#181818;stroke-width:0.5;" width="125.834" x="80.7095" y="1037.5"/><text fill="#000000" font-family="sans-serif" font-size="14" lengthAdjust="spacing" textLength="105.834" x="90.7095" y="1060.6318">openclaw-docker</text></g><!--entity gh--><g class="entity" data-qualified-name="docker.mwaeckerlin.mcp-github.gh" data-source-line="100" id="ent0021"><rect fill="#F1F1F1" height="46.0986" rx="2.5" ry="2.5" style="stroke:#181818;stroke-width:0.5;" width="161.3721" x="440.2095" y="1032.5"/><rect fill="#F1F1F1" height="10" style="stroke:#181818;stroke-width:0.5;" width="15" x="581.5816" y="1037.5"/><rect fill="#F1F1F1" height="2" style="stroke:#181818;stroke-width:0.5;" width="4" x="579.5816" y="1039.5"/><rect fill="#F1F1F1" height="2" style="stroke:#181818;stroke-width:0.5;" width="4" x="579.5816" y="1043.5"/><text fill="#000000" font-family="sans-serif" font-size="14" lengthAdjust="spacing" textLength="121.3721" x="455.2095" y="1065.6318">MCP Github Server</text></g><!--entity user--><g class="entity" data-qualified-name="user" data-source-line="73" id="ent0002"><ellipse cx="305.4888" cy="14" fill="#F1F1F1" rx="8" ry="8" style="stroke:#181818;stroke-width:0.5;"/><path d="M305.4888,22 L305.4888,49 M292.4888,30 L318.4888,30 M305.4888,49 L292.4888,64 M305.4888,49 L318.4888,64" fill="none" style="stroke:#181818;stroke-width:0.5;"/><text fill="#000000" font-family="sans-serif" font-size="14" lengthAdjust="spacing" textLength="29.5586" x="290.7095" y="78.6318">User</text></g><!--entity GitHib--><g class="entity" data-qualified-name="GitHib" data-source-line="111" id="ent0030"><rect fill="#F1F1F1" height="46.0986" rx="2.5" ry="2.5" style="stroke:#181818;stroke-width:0.5;" width="78.8965" x="481.2095" y="1289.5"/><rect fill="#F1F1F1" height="10" style="stroke:#181818;stroke-width:0.5;" width="15" x="540.106" y="1294.5"/><rect fill="#F1F1F1" height="2" style="stroke:#181818;stroke-width:0.5;" width="4" x="538.106" y="1296.5"/><rect fill="#F1F1F1" height="2" style="stroke:#181818;stroke-width:0.5;" width="4" x="538.106" y="1300.5"/><text fill="#000000" font-family="sans-serif" font-size="14" lengthAdjust="spacing" textLength="38.8965" x="496.2095" y="1322.6318">GitHib</text></g><!--link ctrl to cfg--><g class="link" data-entity-1="ent0005" data-entity-2="ent0006" data-link-type="association" data-source-line="80" id="lnk7"><path d="M368.3495,265.5 C379.8995,265.5 391.4495,265.5 402.9995,265.5" fill="none" id="ctrl-cfg" style="stroke:#181818;stroke-width:1;"/></g><!--link ws to sshd--><g class="link" data-entity-1="ent0012" data-entity-2="ent0011" data-link-type="association" data-source-line="90" id="lnk14"><path d="M277.4195,897.5 C289.0495,897.5 300.6695,897.5 312.2995,897.5" fill="none" id="ws-sshd" style="stroke:#181818;stroke-width:1;"/></g><!--link dv to dd--><g class="link" data-entity-1="ent0017" data-entity-2="ent0016" data-link-type="association" data-source-line="96" id="lnk19"><path d="M206.7495,1055.5 C218.4795,1055.5 230.2095,1055.5 241.9395,1055.5" fill="none" id="dv-dd" style="stroke:#181818;stroke-width:1;"/></g><!--link user to ctrl--><g class="link" data-entity-1="ent0002" data-entity-2="ent0005" data-link-type="dependency" data-source-line="106" id="lnk23"><path d="M305.7095,81.82 C305.7095,122.03 305.7095,179.69 305.7095,220.26" fill="none" id="user-to-ctrl" style="stroke:#181818;stroke-width:1;"/><polygon fill="#181818" points="305.7095,226.26,309.7095,217.26,305.7095,221.26,301.7095,217.26,305.7095,226.26" style="stroke:#181818;stroke-width:1;"/><text fill="#000000" font-family="sans-serif" font-size="13" lengthAdjust="spacing" textLength="77.3145" x="306.7095" y="124.6938">HTTP :18789</text></g><!--link ctrl to sshd--><g class="link" data-entity-1="ent0005" data-entity-2="ent0011" data-link-type="dependency" data-source-line="107" id="lnk24"><path d="M296.7395,304.63 C291.0395,332.21 284.7095,370.45 284.7095,404.5 C284.7095,404.5 284.7095,404.5 284.7095,779.5 C284.7095,815.16 307.1595,841.7729 333.0195,862.6329" fill="none" id="ctrl-to-sshd" style="stroke:#181818;stroke-width:1;"/><polygon fill="#181818" points="337.6895,866.4,333.1959,857.636,333.7978,863.2608,328.1731,863.8627,337.6895,866.4" style="stroke:#181818;stroke-width:1;"/><text fill="#000000" font-family="sans-serif" font-size="13" lengthAdjust="spacing" textLength="26.73" x="285.7095" y="620.6938">SSH</text></g><!--reverse link mcp to sshd--><g class="link" data-entity-1="ent0009" data-entity-2="ent0011" data-link-type="dependency" data-source-line="108" id="lnk26"><path d="M434.9423,644.8193 C424.7423,694.9093 401.3195,809.99 389.8195,866.48" fill="none" id="mcp-backto-sshd" style="stroke:#181818;stroke-width:1;"/><polygon fill="#181818" points="436.1395,638.94,430.4241,646.9609,435.1418,643.8395,438.2632,648.5572,436.1395,638.94" style="stroke:#181818;stroke-width:1;"/><text fill="#000000" font-family="sans-serif" font-size="13" lengthAdjust="spacing" textLength="138.0044" x="417.7095" y="745.6938">openclaw cli commands</text></g><!--reverse link ctrl to mcp--><g class="link" data-entity-1="ent0005" data-entity-2="ent0009" data-link-type="dependency" data-source-line="109" id="lnk28"><path d="M308.7377,310.7749 C311.8077,344.2349 318.0295,387.72 332.7095,428.5 C355.6095,492.09 400.1095,558.74 424.2295,592.33" fill="none" id="ctrl-backto-mcp" style="stroke:#181818;stroke-width:1;"/><polygon fill="#181818" points="308.1895,304.8,305.0286,314.1278,308.6464,309.7791,312.9951,313.3969,308.1895,304.8" style="stroke:#181818;stroke-width:1;"/><text fill="#000000" font-family="sans-serif" font-size="13" lengthAdjust="spacing" textLength="119.9263" x="352.7095" y="471.6938">forward cli command</text></g><!--link sshd to gh--><g class="link" data-entity-1="ent0011" data-entity-2="ent0021" data-link-type="dependency" data-source-line="110" id="lnk29"><path d="M410.1195,928.58 C436.7195,958.86 473.1598,1000.3621 497.0698,1027.5821" fill="none" id="sshd-to-gh" style="stroke:#181818;stroke-width:1;"/><polygon fill="#181818" points="501.0295,1032.09,498.0952,1022.6884,497.7298,1028.3334,492.0847,1027.968,501.0295,1032.09" style="stroke:#181818;stroke-width:1;"/></g><!--link gh to GitHib--><g class="link" data-entity-1="ent0021" data-entity-2="ent0030" data-link-type="dependency" data-source-line="111" id="lnk31"><path d="M520.7095,1078.68 C520.7095,1126.91 520.7095,1234.84 520.7095,1283.19" fill="none" id="gh-to-GitHib" style="stroke:#181818;stroke-width:1;"/><polygon fill="#181818" points="520.7095,1289.19,524.7095,1280.19,520.7095,1284.19,516.7095,1280.19,520.7095,1289.19" style="stroke:#181818;stroke-width:1;"/></g><!--link sshd to dd--><g class="link" data-entity-1="ent0011" data-entity-2="ent0016" data-link-type="dependency" data-source-line="112" id="lnk32"><path d="M370.0195,928.58 C356.2395,958.86 337.7852,999.4091 325.3952,1026.6291" fill="none" id="sshd-to-dd" style="stroke:#181818;stroke-width:1;"/><polygon fill="#181818" points="322.9095,1032.09,330.2787,1025.5558,324.9809,1027.5393,322.9975,1022.2415,322.9095,1032.09" style="stroke:#181818;stroke-width:1;"/><text fill="#000000" font-family="sans-serif" font-size="13" lengthAdjust="spacing" textLength="39.019" x="354.7095" y="973.6938">docker</text></g><!--reverse link cfg to aw--><g class="link" data-entity-1="ent0006" data-entity-2="ent0022" data-link-type="dependency" data-source-line="113" id="lnk34"><path d="M463.7095,289.7 C463.7095,314.55 463.7095,354.54 463.7095,382.04" fill="none" id="cfg-backto-aw" style="stroke:#181818;stroke-width:1;stroke-dasharray:7,7;"/><polygon fill="#181818" points="463.7095,283.7,459.7095,292.7,463.7095,288.7,467.7095,292.7,463.7095,283.7" style="stroke:#181818;stroke-width:1;"/><text fill="#000000" font-family="sans-serif" font-size="13" lengthAdjust="spacing" textLength="37.5781" x="464.7095" y="349.6938">chown</text></g><?plantuml-src XLAnJiCm4Dtz5QVi1i42PEXI98e4eb9139J1iTqagkEBx0HJ8VwTizrKPIXaYVFk-TsxTn5oG0SlNZiG7aPwCoODZWeKoYsXNum1M5GQYYu87J7JsdFijPL6XB8MWmvYLyJhTI0wqFCsHpiuDB0qmkgrVNXuXAN3pztQlkeANkxV8rqEpYIw9m-YfWwJAfTeDssTHEMcJgJ81hx__FxR5Uzapm_EzfuUvqju8iAS2B3IxaExP8Eu_okMNbXLuMUovAj9q_j6GNbvkRO6wzQMuB7J5QfTKexL4mC6T5lV2wcJOF2P5jMuqPk1P-Z8rE6cQgrAb-9Xyd6RbtKhT8SszLQdEkUzPeMFn567fWauaKIAj1sQiVgLw5s2ZlEicqb4OjUZrNQ0GXY3DBLh1ys5bDhxv404Hipusm7dixpZ4eh5y_CIoelhg-kRWkN5KpM73SLgjIXOpegFVQoGDofC8u8qRUpTqSeyYxM9jzVVe0l2gMFUf3UBzkk6Jl7yHjCjskfzNrKOBA4gkiWnCkfsDlPdi_XV4YeRelm0?></g></svg>