<?plantuml 1.2026.2?><svg xmlns="http://www.w3.org/2000/svg" xmlns:xlink="http://www.w3.org/1999/xlink" contentStyleType="text/css" data-diagram-type="DESCRIPTION" height="345px" preserveAspectRatio="none" style="width:495px;height:345px;background:#FFFFFF;" version="1.1" viewBox="0 0 495 345" width="495px" zoomAndPan="magnify"><defs/><g><!--cluster Docker--><g class="cluster" data-qualified-name="Docker" data-source-line="19" id="ent0002"><path d="M31.2967,171.0283 C39.2269,153.334 48.2108,152.3951 60.9491,166.5521 C70.5886,153.4874 81.5232,153.2187 90.6124,167.1568 C101.07,154.5575 110.9398,151.2834 121.482,167.0647 C129.4618,154.4533 141.4545,152.2858 150.5977,165.7664 C160.9404,151.9152 177.1388,154.4987 184.1421,169.6312 C191.1793,157.5313 201.1761,154.8914 211.1201,166.2946 C219.2972,150.8308 230.5498,149.3027 241.4559,163.5038 C253.0833,150.179 264.6771,148.8349 275.4009,164.5595 C285.0878,151.7116 297.2786,154.7842 302.5388,168.9985 C309.6804,155.1199 323.7737,154.4603 332.5014,167.214 C343.1679,153.449 352.92,155.3243 360.528,170.2063 C369.9974,153.5796 381.2872,154.3321 391.251,169.7321 C401.3421,155.6521 414.8218,155.1264 424.2893,170.4332 C434.7681,157.0199 449.3422,158.4 457.1608,173.5 C459.9167,174.7637 459.678,177.0467 457.547,178.6752 C474.549,183.3508 476.1265,195.7588 466.0776,208.2398 C485.9007,214.1128 488.5868,230.6023 472.9388,243.3977 C487.1398,255.4969 483.0653,270.0755 466.602,276.2621 C479.9296,294.631 474.1803,312.1893 450.1608,314.5 C453.2346,313.5776 455.0187,315.3479 453.863,318.42 C444.3909,333.5788 431.3019,334.6124 422.0798,318.1685 C413.5118,332.7284 400.0679,333.2134 392.0171,317.6524 C385.4936,334.7476 374.3054,335.0848 363.1929,322.0413 C353.7065,334.5702 344.0741,335.9762 334.4112,322.2348 C323.7165,337.0781 314.3484,334.0603 304.3379,321.4844 C294.9229,337.2747 283.2454,334.0704 273.6875,321.6396 C263.8211,338.912 252.9132,334.9748 242.3152,322.4088 C231.0086,334.5521 220.3109,336.0948 212.3846,318.9538 C202.1694,334.8686 192.6013,334.3536 181.0523,320.3506 C172.6518,333.1914 159.132,332.7687 152.4047,318.5775 C143.8587,330.5675 132.0184,330.7792 123.4077,318.6552 C113.5529,332.8948 102.1276,331.1148 92.345,318.5714 C83.1686,331.0066 71.5631,331.7868 63.4842,317.3909 C46.79,336.2952 29.7719,329.7024 23.1608,307.5 C25.6598,306.3958 27.4151,307.9966 27.0095,310.5535 C12.0807,303.5905 10.6133,288.4377 23.8374,278.6734 C6,269.2147 8.6261,252.1388 24.6902,243.5021 C9.0572,231.8527 8.9133,222.1474 25.7086,211.5311 C8.6677,198.1126 9.2017,176.1614 30.1608,166.5 C32.7856,167.2407 33.3821,169.1061 31.2967,171.0283" fill="none" style="stroke:#181818;stroke-width:1;"/><text fill="#000000" font-family="sans-serif" font-size="14" font-weight="bold" lengthAdjust="spacing" textLength="47.4688" x="216.4264" y="184.6318">Docker</text></g><!--cluster Openclaw:Gateway--><g class="cluster" data-qualified-name="Docker.Openclaw.Gateway" data-source-line="20" id="ent0003"><rect fill="none" height="97" rx="2.5" ry="2.5" style="stroke:#181818;stroke-width:1;" width="233" x="39.1608" y="201.5"/><rect fill="none" height="10" style="stroke:#181818;stroke-width:1;" width="15" x="252.1608" y="206.5"/><rect fill="none" height="2" style="stroke:#181818;stroke-width:1;" width="4" x="250.1608" y="208.5"/><rect fill="none" height="2" style="stroke:#181818;stroke-width:1;" width="4" x="250.1608" y="212.5"/><text fill="#000000" font-family="sans-serif" font-size="14" font-weight="bold" lengthAdjust="spacing" textLength="128.3789" x="91.4713" y="227.6318">Openclaw:Gateway</text></g><!--cluster Openclaw:Sandbox--><g class="cluster" data-qualified-name="Docker.Openclaw.Sandbox" data-source-line="23" id="ent0007"><rect fill="none" height="97" rx="2.5" ry="2.5" style="stroke:#181818;stroke-width:1;" width="145" x="296.1608" y="201.5"/><rect fill="none" height="10" style="stroke:#181818;stroke-width:1;" width="15" x="421.1608" y="206.5"/><rect fill="none" height="2" style="stroke:#181818;stroke-width:1;" width="4" x="419.1608" y="208.5"/><rect fill="none" height="2" style="stroke:#181818;stroke-width:1;" width="4" x="419.1608" y="212.5"/><text fill="#000000" font-family="sans-serif" font-size="14" font-weight="bold" lengthAdjust="spacing" textLength="129.9102" x="303.7057" y="227.6318">Openclaw:Sandbox</text></g><!--entity secrets--><g class="entity" data-qualified-name="Docker.Openclaw.Gateway.secrets" data-source-line="21" id="ent0004"><ellipse cx="90.0683" cy="259.3835" fill="#F1F1F1" rx="34.9075" ry="14.3835" style="stroke:#181818;stroke-width:0.5;"/><text fill="#000000" font-family="sans-serif" font-size="14" lengthAdjust="spacing" textLength="45.124" x="67.5063" y="263.9328">secrets</text></g><!--entity Gateway--><g class="entity" data-qualified-name="Docker.Openclaw.Gateway.Gateway" data-source-line="21" id="ent0005"><rect fill="#F1F1F1" height="46.0986" rx="2.5" ry="2.5" style="stroke:#181818;stroke-width:0.5;" width="95.248" x="160.6608" y="236.5"/><rect fill="#F1F1F1" height="10" style="stroke:#181818;stroke-width:0.5;" width="15" x="235.9088" y="241.5"/><rect fill="#F1F1F1" height="2" style="stroke:#181818;stroke-width:0.5;" width="4" x="233.9088" y="243.5"/><rect fill="#F1F1F1" height="2" style="stroke:#181818;stroke-width:0.5;" width="4" x="233.9088" y="247.5"/><text fill="#000000" font-family="sans-serif" font-size="14" lengthAdjust="spacing" textLength="55.248" x="175.6608" y="269.6318">Gateway</text></g><!--entity Ubuntu--><g class="entity" data-qualified-name="Docker.Openclaw.Sandbox.Ubuntu" data-source-line="24" id="ent0008"><rect fill="#F1F1F1" height="46.0986" rx="2.5" ry="2.5" style="stroke:#181818;stroke-width:0.5;" width="85.1445" x="312.6608" y="236.5"/><rect fill="#F1F1F1" height="10" style="stroke:#181818;stroke-width:0.5;" width="15" x="377.8053" y="241.5"/><rect fill="#F1F1F1" height="2" style="stroke:#181818;stroke-width:0.5;" width="4" x="375.8053" y="243.5"/><rect fill="#F1F1F1" height="2" style="stroke:#181818;stroke-width:0.5;" width="4" x="375.8053" y="247.5"/><text fill="#000000" font-family="sans-serif" font-size="14" lengthAdjust="spacing" textLength="45.1445" x="327.6608" y="269.6318">Ubuntu</text></g><!--entity User--><g class="entity" data-qualified-name="User" data-source-line="27" id="ent0009"><ellipse cx="207.9401" cy="14" fill="#F1F1F1" rx="8" ry="8" style="stroke:#181818;stroke-width:0.5;"/><path d="M207.9401,22 L207.9401,49 M194.9401,30 L220.9401,30 M207.9401,49 L194.9401,64 M207.9401,49 L220.9401,64" fill="none" style="stroke:#181818;stroke-width:0.5;"/><text fill="#000000" font-family="sans-serif" font-size="14" lengthAdjust="spacing" textLength="29.5586" x="193.1608" y="78.6318">User</text></g><!--entity Agent--><g class="entity" data-qualified-name="Agent" data-source-line="28" id="ent0011"><ellipse cx="354.9537" cy="14" fill="#F1F1F1" rx="8" ry="8" style="stroke:#181818;stroke-width:0.5;"/><path d="M354.9537,22 L354.9537,49 M341.9537,30 L367.9537,30 M354.9537,49 L341.9537,64 M354.9537,49 L367.9537,64" fill="none" style="stroke:#181818;stroke-width:0.5;"/><text fill="#000000" font-family="sans-serif" font-size="14" lengthAdjust="spacing" textLength="36.5859" x="336.6608" y="78.6318">Agent</text></g><!--link secrets to Gateway--><g class="link" data-entity-1="ent0004" data-entity-2="ent0005" data-link-type="association" data-source-line="21" id="lnk6"><path d="M125.1908,259.5 C136.9708,259.5 148.7408,259.5 160.5208,259.5" fill="none" id="secrets-Gateway" style="stroke:#181818;stroke-width:1;stroke-dasharray:7,7;"/></g><!--link User to Gateway--><g class="link" data-entity-1="ent0009" data-entity-2="ent0005" data-link-type="dependency" data-source-line="27" id="lnk10"><path d="M208.1608,81.78 C208.1608,126.44 208.1608,193.82 208.1608,230.37" fill="none" id="User-to-Gateway" style="stroke:#181818;stroke-width:1;"/><polygon fill="#181818" points="208.1608,236.37,212.1608,227.37,208.1608,231.37,204.1608,227.37,208.1608,236.37" style="stroke:#181818;stroke-width:1;"/><text fill="#000000" font-family="sans-serif" font-size="13" lengthAdjust="spacing" textLength="39.019" x="209.1608" y="132.1938">control</text></g><!--link Agent to Ubuntu--><g class="link" data-entity-1="ent0011" data-entity-2="ent0008" data-link-type="dependency" data-source-line="28" id="lnk12"><path d="M355.1608,81.78 C355.1608,126.44 355.1608,193.82 355.1608,230.37" fill="none" id="Agent-to-Ubuntu" style="stroke:#181818;stroke-width:1;"/><polygon fill="#181818" points="355.1608,236.37,359.1608,227.37,355.1608,231.37,351.1608,227.37,355.1608,236.37" style="stroke:#181818;stroke-width:1;"/><text fill="#000000" font-family="sans-serif" font-size="13" lengthAdjust="spacing" textLength="45.5317" x="365.184" y="124.6938">execute</text><text fill="#000000" font-family="sans-serif" font-size="13" lengthAdjust="spacing" textLength="63.5781" x="356.1608" y="139.6426">commands</text></g><!--link Gateway to Ubuntu--><g class="link" data-entity-1="ent0005" data-entity-2="ent0008" data-link-type="dependency" data-source-line="29" id="lnk13"><path d="M255.8908,259.5 C274.1608,259.5 288.8708,259.5 306.6308,259.5" fill="none" id="Gateway-to-Ubuntu" style="stroke:#181818;stroke-width:1;"/><polygon fill="#181818" points="312.6308,259.5,303.6308,255.5,307.6308,259.5,303.6308,263.5,312.6308,259.5" style="stroke:#181818;stroke-width:1;"/><text fill="#000000" font-family="sans-serif" font-size="13" lengthAdjust="spacing" textLength="20.23" x="274.1608" y="275.6938">ssh</text></g><?plantuml-src TOqn2i9044NxFSMKMiG3R248WgM5f4eiDfD1mSrCs9qb4SdTNJGXM5Y__zv7Bwc5e-230hmC04hN2nChLEUU6BqRxCaf3Uvv_Gm0Df4maCOjxA1QM2RJ7_tYk6raNFIgR19h-XgJiMMaOA4ezciCR0wn1l767cwvDlFPp9X6mgHKSpxiSZ-QLVvTndX_0m00?></g></svg>